<svg xmlns="http://www.w3.org/2000/svg" width="1170" height="488" viewBox="0 0 1170 488" font-family="Segoe UI, Helvetica Neue, Arial, sans-serif" role="img" aria-label="Bausteinbudget: passende und unpassende Absätze (M86)"><title>Bausteinbudget: passende und unpassende Absätze (M86)</title><rect width="1170" height="488" fill="#ffffff"/>
<text x="24.0" y="30.0" font-size="17" fill="#1f2933" text-anchor="start" font-weight="600">Bausteinbudget: passende und unpassende Absätze (M86)</text>
<text x="24.0" y="52.0" font-size="12" fill="#52606d" text-anchor="start" font-weight="normal">Vier Themen: die Absätze je Faktor nach ihrem Bezug zum angefragten Thema, wörtlich gedruckt oder als Beleg für den Schreiber</text>
<rect x="24.0" y="64.0" width="12.0" height="12.0" rx="2" fill="#3a8f5c" stroke="none" stroke-width="1"/>
<text x="42.0" y="74.0" font-size="12" fill="#52606d" text-anchor="start" font-weight="normal">zum Thema</text>
<rect x="124.5" y="64.0" width="12.0" height="12.0" rx="2" fill="#a9ccb4" stroke="none" stroke-width="1"/>
<text x="142.5" y="74.0" font-size="12" fill="#52606d" text-anchor="start" font-weight="normal">am Rand</text>
<rect x="211.5" y="64.0" width="12.0" height="12.0" rx="2" fill="#c8553d" stroke="none" stroke-width="1"/>
<text x="229.5" y="74.0" font-size="12" fill="#52606d" text-anchor="start" font-weight="normal">daneben</text>
<text x="30.0" y="110.0" font-size="12" fill="#1f2933" text-anchor="start" font-weight="600">llm-free: gedruckte Absätze</text>
<line x1="80.0" y1="348.0" x2="380.0" y2="348.0" stroke="#dde2e8" stroke-width="1"/>
<text x="73.0" y="352.0" font-size="10" fill="#52606d" text-anchor="end" font-weight="normal">0</text>
<line x1="80.0" y1="311.3" x2="380.0" y2="311.3" stroke="#dde2e8" stroke-width="1"/>
<text x="73.0" y="315.3" font-size="10" fill="#52606d" text-anchor="end" font-weight="normal">100</text>
<line x1="80.0" y1="274.7" x2="380.0" y2="274.7" stroke="#dde2e8" stroke-width="1"/>
<text x="73.0" y="278.7" font-size="10" fill="#52606d" text-anchor="end" font-weight="normal">200</text>
<line x1="80.0" y1="238.0" x2="380.0" y2="238.0" stroke="#dde2e8" stroke-width="1"/>
<text x="73.0" y="242.0" font-size="10" fill="#52606d" text-anchor="end" font-weight="normal">300</text>
<line x1="80.0" y1="201.3" x2="380.0" y2="201.3" stroke="#dde2e8" stroke-width="1"/>
<text x="73.0" y="205.3" font-size="10" fill="#52606d" text-anchor="end" font-weight="normal">400</text>
<line x1="80.0" y1="164.7" x2="380.0" y2="164.7" stroke="#dde2e8" stroke-width="1"/>
<text x="73.0" y="168.7" font-size="10" fill="#52606d" text-anchor="end" font-weight="normal">500</text>
<line x1="80.0" y1="128.0" x2="380.0" y2="128.0" stroke="#dde2e8" stroke-width="1"/>
<text x="73.0" y="132.0" font-size="10" fill="#52606d" text-anchor="end" font-weight="normal">600</text>
<rect x="97.5" y="336.3" width="40.0" height="11.7" rx="0" fill="#3a8f5c" stroke="none" stroke-width="1"/>
<rect x="97.5" y="325.6" width="40.0" height="10.6" rx="0" fill="#a9ccb4" stroke="none" stroke-width="1"/>
<rect x="97.5" y="314.6" width="40.0" height="11.0" rx="0" fill="#c8553d" stroke="none" stroke-width="1"/>
<text x="117.5" y="294.6" font-size="11" fill="#1f2933" text-anchor="middle" font-weight="600">91</text>
<text x="117.5" y="308.6" font-size="9.5" fill="#52606d" text-anchor="middle" font-weight="normal">33 % daneben</text>
<text x="117.5" y="365.0" font-size="11" fill="#1f2933" text-anchor="middle" font-weight="normal">×1</text>
<rect x="172.5" y="330.0" width="40.0" height="18.0" rx="0" fill="#3a8f5c" stroke="none" stroke-width="1"/>
<rect x="172.5" y="313.7" width="40.0" height="16.3" rx="0" fill="#a9ccb4" stroke="none" stroke-width="1"/>
<rect x="172.5" y="300.7" width="40.0" height="13.0" rx="0" fill="#c8553d" stroke="none" stroke-width="1"/>
<text x="192.5" y="280.7" font-size="11" fill="#1f2933" text-anchor="middle" font-weight="600">129</text>
<text x="192.5" y="294.7" font-size="9.5" fill="#52606d" text-anchor="middle" font-weight="normal">28 % daneben</text>
<text x="192.5" y="365.0" font-size="11" fill="#1f2933" text-anchor="middle" font-weight="normal">×2</text>
<text x="192.5" y="381.0" font-size="9.5" fill="#52606d" text-anchor="middle" font-weight="normal">neu 38: 14 %</text>
<rect x="247.5" y="320.1" width="40.0" height="27.9" rx="0" fill="#3a8f5c" stroke="none" stroke-width="1"/>
<rect x="247.5" y="296.9" width="40.0" height="23.3" rx="0" fill="#a9ccb4" stroke="none" stroke-width="1"/>
<rect x="247.5" y="283.1" width="40.0" height="13.8" rx="0" fill="#c8553d" stroke="none" stroke-width="1"/>
<text x="267.5" y="263.1" font-size="11" fill="#1f2933" text-anchor="middle" font-weight="600">177</text>
<text x="267.5" y="277.1" font-size="9.5" fill="#52606d" text-anchor="middle" font-weight="normal">21 % daneben</text>
<text x="267.5" y="365.0" font-size="11" fill="#1f2933" text-anchor="middle" font-weight="normal">×4</text>
<text x="267.5" y="381.0" font-size="9.5" fill="#52606d" text-anchor="middle" font-weight="normal">neu 48: 4 %</text>
<rect x="322.5" y="297.2" width="40.0" height="50.8" rx="0" fill="#3a8f5c" stroke="none" stroke-width="1"/>
<rect x="322.5" y="270.8" width="40.0" height="26.4" rx="0" fill="#a9ccb4" stroke="none" stroke-width="1"/>
<rect x="322.5" y="256.7" width="40.0" height="14.1" rx="0" fill="#c8553d" stroke="none" stroke-width="1"/>
<text x="342.5" y="236.7" font-size="11" fill="#1f2933" text-anchor="middle" font-weight="600">249</text>
<text x="342.5" y="250.7" font-size="9.5" fill="#52606d" text-anchor="middle" font-weight="normal">15 % daneben</text>
<text x="342.5" y="365.0" font-size="11" fill="#1f2933" text-anchor="middle" font-weight="normal">×10</text>
<text x="342.5" y="381.0" font-size="9.5" fill="#52606d" text-anchor="middle" font-weight="normal">neu 72: 1 %</text>
<text x="410.0" y="110.0" font-size="12" fill="#1f2933" text-anchor="start" font-weight="600">balanced: gedruckte Absätze</text>
<line x1="460.0" y1="348.0" x2="760.0" y2="348.0" stroke="#dde2e8" stroke-width="1"/>
<text x="453.0" y="352.0" font-size="10" fill="#52606d" text-anchor="end" font-weight="normal">0</text>
<line x1="460.0" y1="311.3" x2="760.0" y2="311.3" stroke="#dde2e8" stroke-width="1"/>
<text x="453.0" y="315.3" font-size="10" fill="#52606d" text-anchor="end" font-weight="normal">100</text>
<line x1="460.0" y1="274.7" x2="760.0" y2="274.7" stroke="#dde2e8" stroke-width="1"/>
<text x="453.0" y="278.7" font-size="10" fill="#52606d" text-anchor="end" font-weight="normal">200</text>
<line x1="460.0" y1="238.0" x2="760.0" y2="238.0" stroke="#dde2e8" stroke-width="1"/>
<text x="453.0" y="242.0" font-size="10" fill="#52606d" text-anchor="end" font-weight="normal">300</text>
<line x1="460.0" y1="201.3" x2="760.0" y2="201.3" stroke="#dde2e8" stroke-width="1"/>
<text x="453.0" y="205.3" font-size="10" fill="#52606d" text-anchor="end" font-weight="normal">400</text>
<line x1="460.0" y1="164.7" x2="760.0" y2="164.7" stroke="#dde2e8" stroke-width="1"/>
<text x="453.0" y="168.7" font-size="10" fill="#52606d" text-anchor="end" font-weight="normal">500</text>
<line x1="460.0" y1="128.0" x2="760.0" y2="128.0" stroke="#dde2e8" stroke-width="1"/>
<text x="453.0" y="132.0" font-size="10" fill="#52606d" text-anchor="end" font-weight="normal">600</text>
<rect x="477.5" y="323.2" width="40.0" height="24.8" rx="0" fill="#3a8f5c" stroke="none" stroke-width="1"/>
<rect x="477.5" y="309.5" width="40.0" height="13.8" rx="0" fill="#a9ccb4" stroke="none" stroke-width="1"/>
<rect x="477.5" y="308.4" width="40.0" height="1.1" rx="0" fill="#c8553d" stroke="none" stroke-width="1"/>
<text x="497.5" y="288.4" font-size="11" fill="#1f2933" text-anchor="middle" font-weight="600">108</text>
<text x="497.5" y="302.4" font-size="9.5" fill="#52606d" text-anchor="middle" font-weight="normal">3 % daneben</text>
<text x="497.5" y="365.0" font-size="11" fill="#1f2933" text-anchor="middle" font-weight="normal">×1</text>
<rect x="552.5" y="309.3" width="40.0" height="38.7" rx="0" fill="#3a8f5c" stroke="none" stroke-width="1"/>
<rect x="552.5" y="284.2" width="40.0" height="25.1" rx="0" fill="#a9ccb4" stroke="none" stroke-width="1"/>
<rect x="552.5" y="282.7" width="40.0" height="1.5" rx="0" fill="#c8553d" stroke="none" stroke-width="1"/>
<text x="572.5" y="262.7" font-size="11" fill="#1f2933" text-anchor="middle" font-weight="600">178</text>
<text x="572.5" y="276.7" font-size="9.5" fill="#52606d" text-anchor="middle" font-weight="normal">2 % daneben</text>
<text x="572.5" y="365.0" font-size="11" fill="#1f2933" text-anchor="middle" font-weight="normal">×2</text>
<text x="572.5" y="381.0" font-size="9.5" fill="#52606d" text-anchor="middle" font-weight="normal">neu 70: 1 %</text>
<rect x="627.5" y="292.1" width="40.0" height="55.9" rx="0" fill="#3a8f5c" stroke="none" stroke-width="1"/>
<rect x="627.5" y="252.1" width="40.0" height="40.0" rx="0" fill="#a9ccb4" stroke="none" stroke-width="1"/>
<rect x="627.5" y="249.4" width="40.0" height="2.8" rx="0" fill="#c8553d" stroke="none" stroke-width="1"/>
<text x="647.5" y="229.4" font-size="11" fill="#1f2933" text-anchor="middle" font-weight="600">269</text>
<text x="647.5" y="243.4" font-size="9.5" fill="#52606d" text-anchor="middle" font-weight="normal">3 % daneben</text>
<text x="647.5" y="365.0" font-size="11" fill="#1f2933" text-anchor="middle" font-weight="normal">×4</text>
<text x="647.5" y="381.0" font-size="9.5" fill="#52606d" text-anchor="middle" font-weight="normal">neu 91: 4 %</text>
<rect x="702.5" y="260.6" width="40.0" height="87.4" rx="0" fill="#3a8f5c" stroke="none" stroke-width="1"/>
<rect x="702.5" y="190.7" width="40.0" height="69.8" rx="0" fill="#a9ccb4" stroke="none" stroke-width="1"/>
<rect x="702.5" y="182.6" width="40.0" height="8.1" rx="0" fill="#c8553d" stroke="none" stroke-width="1"/>
<text x="722.5" y="162.6" font-size="11" fill="#1f2933" text-anchor="middle" font-weight="600">451</text>
<text x="722.5" y="176.6" font-size="9.5" fill="#52606d" text-anchor="middle" font-weight="normal">5 % daneben</text>
<text x="722.5" y="365.0" font-size="11" fill="#1f2933" text-anchor="middle" font-weight="normal">×10</text>
<text x="722.5" y="381.0" font-size="9.5" fill="#52606d" text-anchor="middle" font-weight="normal">neu 182: 8 %</text>
<text x="790.0" y="110.0" font-size="12" fill="#1f2933" text-anchor="start" font-weight="600">best-quality-generated: Belege des Schreibers</text>
<line x1="840.0" y1="348.0" x2="1140.0" y2="348.0" stroke="#dde2e8" stroke-width="1"/>
<text x="833.0" y="352.0" font-size="10" fill="#52606d" text-anchor="end" font-weight="normal">0</text>
<line x1="840.0" y1="311.3" x2="1140.0" y2="311.3" stroke="#dde2e8" stroke-width="1"/>
<text x="833.0" y="315.3" font-size="10" fill="#52606d" text-anchor="end" font-weight="normal">100</text>
<line x1="840.0" y1="274.7" x2="1140.0" y2="274.7" stroke="#dde2e8" stroke-width="1"/>
<text x="833.0" y="278.7" font-size="10" fill="#52606d" text-anchor="end" font-weight="normal">200</text>
<line x1="840.0" y1="238.0" x2="1140.0" y2="238.0" stroke="#dde2e8" stroke-width="1"/>
<text x="833.0" y="242.0" font-size="10" fill="#52606d" text-anchor="end" font-weight="normal">300</text>
<line x1="840.0" y1="201.3" x2="1140.0" y2="201.3" stroke="#dde2e8" stroke-width="1"/>
<text x="833.0" y="205.3" font-size="10" fill="#52606d" text-anchor="end" font-weight="normal">400</text>
<line x1="840.0" y1="164.7" x2="1140.0" y2="164.7" stroke="#dde2e8" stroke-width="1"/>
<text x="833.0" y="168.7" font-size="10" fill="#52606d" text-anchor="end" font-weight="normal">500</text>
<line x1="840.0" y1="128.0" x2="1140.0" y2="128.0" stroke="#dde2e8" stroke-width="1"/>
<text x="833.0" y="132.0" font-size="10" fill="#52606d" text-anchor="end" font-weight="normal">600</text>
<rect x="857.5" y="320.7" width="40.0" height="27.3" rx="0" fill="#3a8f5c" stroke="none" stroke-width="1"/>
<rect x="857.5" y="306.2" width="40.0" height="14.5" rx="0" fill="#a9ccb4" stroke="none" stroke-width="1"/>
<rect x="857.5" y="305.1" width="40.0" height="1.1" rx="0" fill="#c8553d" stroke="none" stroke-width="1"/>
<text x="877.5" y="285.1" font-size="11" fill="#1f2933" text-anchor="middle" font-weight="600">117</text>
<text x="877.5" y="299.1" font-size="9.5" fill="#52606d" text-anchor="middle" font-weight="normal">3 % daneben</text>
<text x="877.5" y="365.0" font-size="11" fill="#1f2933" text-anchor="middle" font-weight="normal">×1</text>
<rect x="932.5" y="302.0" width="40.0" height="46.0" rx="0" fill="#3a8f5c" stroke="none" stroke-width="1"/>
<rect x="932.5" y="276.5" width="40.0" height="25.5" rx="0" fill="#a9ccb4" stroke="none" stroke-width="1"/>
<rect x="932.5" y="275.0" width="40.0" height="1.5" rx="0" fill="#c8553d" stroke="none" stroke-width="1"/>
<text x="952.5" y="255.0" font-size="11" fill="#1f2933" text-anchor="middle" font-weight="600">199</text>
<text x="952.5" y="269.0" font-size="9.5" fill="#52606d" text-anchor="middle" font-weight="normal">2 % daneben</text>
<text x="952.5" y="365.0" font-size="11" fill="#1f2933" text-anchor="middle" font-weight="normal">×2</text>
<text x="952.5" y="381.0" font-size="9.5" fill="#52606d" text-anchor="middle" font-weight="normal">neu 82: 1 %</text>
<rect x="1007.5" y="275.2" width="40.0" height="72.8" rx="0" fill="#3a8f5c" stroke="none" stroke-width="1"/>
<rect x="1007.5" y="233.2" width="40.0" height="42.0" rx="0" fill="#a9ccb4" stroke="none" stroke-width="1"/>
<rect x="1007.5" y="229.2" width="40.0" height="4.0" rx="0" fill="#c8553d" stroke="none" stroke-width="1"/>
<text x="1027.5" y="209.2" font-size="11" fill="#1f2933" text-anchor="middle" font-weight="600">324</text>
<text x="1027.5" y="223.2" font-size="9.5" fill="#52606d" text-anchor="middle" font-weight="normal">3 % daneben</text>
<text x="1027.5" y="365.0" font-size="11" fill="#1f2933" text-anchor="middle" font-weight="normal">×4</text>
<text x="1027.5" y="381.0" font-size="9.5" fill="#52606d" text-anchor="middle" font-weight="normal">neu 125: 6 %</text>
<rect x="1082.5" y="231.6" width="40.0" height="116.4" rx="0" fill="#3a8f5c" stroke="none" stroke-width="1"/>
<rect x="1082.5" y="159.7" width="40.0" height="71.9" rx="0" fill="#a9ccb4" stroke="none" stroke-width="1"/>
<rect x="1082.5" y="153.3" width="40.0" height="6.4" rx="0" fill="#c8553d" stroke="none" stroke-width="1"/>
<text x="1102.5" y="133.3" font-size="11" fill="#1f2933" text-anchor="middle" font-weight="600">531</text>
<text x="1102.5" y="147.3" font-size="9.5" fill="#52606d" text-anchor="middle" font-weight="normal">3 % daneben</text>
<text x="1102.5" y="365.0" font-size="11" fill="#1f2933" text-anchor="middle" font-weight="normal">×10</text>
<text x="1102.5" y="381.0" font-size="9.5" fill="#52606d" text-anchor="middle" font-weight="normal">neu 207: 3 %</text>
<text x="24.0" y="412.0" font-size="10.5" fill="#52606d" text-anchor="start" font-weight="normal">Jeder Absatz einmal blind benotet von zwei Claude-Gutachtern (Mittel), Summe der vier Themen; bei best-quality-generated die Absätze, die der Schreiber je Baustein bekommt.</text>
<text x="24.0" y="428.0" font-size="10.5" fill="#52606d" text-anchor="start" font-weight="normal">Über dem Balken: alle Absätze und ihr Anteil daneben. Darunter: die neuen gegenüber dem nächstkleineren Faktor und ihr Anteil daneben.</text>
<text x="24.0" y="444.0" font-size="10.5" fill="#52606d" text-anchor="start" font-weight="normal">Was ×1 hat, haben alle größeren Faktoren auch (je Thema ein Korpus und eine Zuordnung).</text></svg>
