<svg xmlns="http://www.w3.org/2000/svg" width="1200" height="432" viewBox="0 0 1200 432" font-family="Segoe UI, Helvetica Neue, Arial, sans-serif" role="img" aria-label="Die fünf Profile: Güte, Zeit und Kosten (M52)"><title>Die fünf Profile: Güte, Zeit und Kosten (M52)</title><rect width="1200" height="432" fill="#ffffff"/>
<text x="24.0" y="30.0" font-size="17" fill="#1f2933" text-anchor="start" font-weight="600">Die fünf Profile: Güte, Zeit und Kosten</text>
<text x="24.0" y="52.0" font-size="12" fill="#52606d" text-anchor="start" font-weight="normal">Stand D72; Teil 1, neun Themen in drei Arten, je ein Lauf; Noten zweier blinder Gutachter von 1 bis 5 (M52)</text>
<rect x="24.0" y="68.0" width="12.0" height="12.0" rx="2" fill="#2f6db5" stroke="none" stroke-width="1"/>
<text x="42.0" y="78.0" font-size="11.5" fill="#52606d" text-anchor="start" font-weight="normal">Güte: Note von 1 bis 5 (volle Spur = 5)</text>
<rect x="315.2" y="68.0" width="12.0" height="12.0" rx="2" fill="#52606d" stroke="none" stroke-width="1"/>
<text x="333.2" y="78.0" font-size="11.5" fill="#52606d" text-anchor="start" font-weight="normal">Aufwand: Zeit und Tokens, ab 0</text>
<rect x="548.4" y="68.0" width="12.0" height="12.0" rx="2" fill="#9aa5b1" stroke="none" stroke-width="1"/>
<text x="566.4" y="78.0" font-size="11.5" fill="#52606d" text-anchor="start" font-weight="normal">davon aus dem Prompt-Cache</text>
<rect x="755.8" y="68.0" width="12.0" height="12.0" rx="2" fill="#d9822b" stroke="none" stroke-width="1"/>
<text x="773.8" y="78.0" font-size="11.5" fill="#52606d" text-anchor="start" font-weight="normal">Modellwissen, ab 0 %</text>
<text x="224.0" y="102.0" font-size="11" fill="#52606d" text-anchor="start" font-weight="600">Passung</text>
<text x="224.0" y="116.0" font-size="10.5" fill="#52606d" text-anchor="start" font-weight="normal">einfach</text>
<text x="324.0" y="102.0" font-size="11" fill="#52606d" text-anchor="start" font-weight="600">Passung</text>
<text x="324.0" y="116.0" font-size="10.5" fill="#52606d" text-anchor="start" font-weight="normal">Sammelthema</text>
<text x="424.0" y="102.0" font-size="11" fill="#52606d" text-anchor="start" font-weight="600">Passung</text>
<text x="424.0" y="116.0" font-size="10.5" fill="#52606d" text-anchor="start" font-weight="normal">mit Aspekt</text>
<text x="524.0" y="102.0" font-size="11" fill="#52606d" text-anchor="start" font-weight="600">Nutzen</text>
<text x="524.0" y="116.0" font-size="10.5" fill="#52606d" text-anchor="start" font-weight="normal">alle Themen</text>
<text x="624.0" y="102.0" font-size="11" fill="#52606d" text-anchor="start" font-weight="600">Vollständigkeit</text>
<text x="624.0" y="116.0" font-size="10.5" fill="#52606d" text-anchor="start" font-weight="normal">alle Themen</text>
<text x="724.0" y="102.0" font-size="11" fill="#52606d" text-anchor="start" font-weight="600">Lesbarkeit</text>
<text x="724.0" y="116.0" font-size="10.5" fill="#52606d" text-anchor="start" font-weight="normal">alle Themen</text>
<text x="824.0" y="102.0" font-size="11" fill="#52606d" text-anchor="start" font-weight="600">Zeit</text>
<text x="824.0" y="116.0" font-size="10.5" fill="#52606d" text-anchor="start" font-weight="normal">Teil 1, Median</text>
<text x="944.0" y="102.0" font-size="11" fill="#52606d" text-anchor="start" font-weight="600">Tokens</text>
<text x="944.0" y="116.0" font-size="10.5" fill="#52606d" text-anchor="start" font-weight="normal">Median</text>
<text x="1064.0" y="102.0" font-size="11" fill="#52606d" text-anchor="start" font-weight="600">Modellwissen</text>
<text x="1064.0" y="116.0" font-size="10.5" fill="#52606d" text-anchor="start" font-weight="normal">am Text, Median</text>
<rect x="20.0" y="124.0" width="1164.0" height="40.0" rx="3" fill="#f3f6fa" stroke="none" stroke-width="1"/>
<text x="24.0" y="144.0" font-size="12" fill="#1f2933" text-anchor="start" font-weight="600">llm-free</text>
<rect x="224.0" y="133.0" width="62.0" height="14.0" rx="2" fill="#dde2e8" stroke="none" stroke-width="1"/>
<rect x="224.0" y="133.0" width="31.0" height="14.0" rx="2" fill="#2f6db5" stroke="none" stroke-width="1"/>
<text x="291.0" y="144.0" font-size="11" fill="#1f2933" text-anchor="start" font-weight="normal">3,0</text>
<rect x="324.0" y="133.0" width="62.0" height="14.0" rx="2" fill="#dde2e8" stroke="none" stroke-width="1"/>
<rect x="324.0" y="133.0" width="7.8" height="14.0" rx="2" fill="#2f6db5" stroke="none" stroke-width="1"/>
<text x="391.0" y="144.0" font-size="11" fill="#1f2933" text-anchor="start" font-weight="normal">1,5</text>
<rect x="424.0" y="133.0" width="62.0" height="14.0" rx="2" fill="#dde2e8" stroke="none" stroke-width="1"/>
<rect x="424.0" y="133.0" width="0.0" height="14.0" rx="2" fill="#2f6db5" stroke="none" stroke-width="1"/>
<text x="491.0" y="144.0" font-size="11" fill="#1f2933" text-anchor="start" font-weight="normal">1,0</text>
<rect x="524.0" y="133.0" width="62.0" height="14.0" rx="2" fill="#dde2e8" stroke="none" stroke-width="1"/>
<rect x="524.0" y="133.0" width="7.8" height="14.0" rx="2" fill="#2f6db5" stroke="none" stroke-width="1"/>
<text x="591.0" y="144.0" font-size="11" fill="#1f2933" text-anchor="start" font-weight="normal">1,5</text>
<rect x="624.0" y="133.0" width="62.0" height="14.0" rx="2" fill="#dde2e8" stroke="none" stroke-width="1"/>
<rect x="624.0" y="133.0" width="0.0" height="14.0" rx="2" fill="#2f6db5" stroke="none" stroke-width="1"/>
<text x="691.0" y="144.0" font-size="11" fill="#1f2933" text-anchor="start" font-weight="normal">1,0</text>
<rect x="724.0" y="133.0" width="62.0" height="14.0" rx="2" fill="#dde2e8" stroke="none" stroke-width="1"/>
<rect x="724.0" y="133.0" width="16.4" height="14.0" rx="2" fill="#2f6db5" stroke="none" stroke-width="1"/>
<text x="791.0" y="144.0" font-size="11" fill="#1f2933" text-anchor="start" font-weight="normal">2,1</text>
<rect x="824.0" y="133.0" width="2.8" height="14.0" rx="2" fill="#52606d" stroke="none" stroke-width="1"/>
<text x="831.8" y="144.0" font-size="11" fill="#1f2933" text-anchor="start" font-weight="normal">1,7 s</text>
<text x="949.0" y="144.0" font-size="11" fill="#1f2933" text-anchor="start" font-weight="normal">0</text>
<rect x="1064.0" y="133.0" width="62.0" height="14.0" rx="2" fill="#dde2e8" stroke="none" stroke-width="1"/>
<text x="1131.0" y="144.0" font-size="11" fill="#1f2933" text-anchor="start" font-weight="normal">0 %</text>
<text x="24.0" y="184.0" font-size="12" fill="#1f2933" text-anchor="start" font-weight="600">balanced</text>
<rect x="224.0" y="173.0" width="62.0" height="14.0" rx="2" fill="#dde2e8" stroke="none" stroke-width="1"/>
<rect x="224.0" y="173.0" width="41.4" height="14.0" rx="2" fill="#2f6db5" stroke="none" stroke-width="1"/>
<text x="291.0" y="184.0" font-size="11" fill="#1f2933" text-anchor="start" font-weight="normal">3,7</text>
<rect x="324.0" y="173.0" width="62.0" height="14.0" rx="2" fill="#dde2e8" stroke="none" stroke-width="1"/>
<rect x="324.0" y="173.0" width="28.4" height="14.0" rx="2" fill="#2f6db5" stroke="none" stroke-width="1"/>
<text x="391.0" y="184.0" font-size="11" fill="#1f2933" text-anchor="start" font-weight="normal">2,8</text>
<rect x="424.0" y="173.0" width="62.0" height="14.0" rx="2" fill="#dde2e8" stroke="none" stroke-width="1"/>
<rect x="424.0" y="173.0" width="2.6" height="14.0" rx="2" fill="#2f6db5" stroke="none" stroke-width="1"/>
<text x="491.0" y="184.0" font-size="11" fill="#1f2933" text-anchor="start" font-weight="normal">1,2</text>
<rect x="524.0" y="173.0" width="62.0" height="14.0" rx="2" fill="#dde2e8" stroke="none" stroke-width="1"/>
<rect x="524.0" y="173.0" width="19.8" height="14.0" rx="2" fill="#2f6db5" stroke="none" stroke-width="1"/>
<text x="591.0" y="184.0" font-size="11" fill="#1f2933" text-anchor="start" font-weight="normal">2,3</text>
<rect x="624.0" y="173.0" width="62.0" height="14.0" rx="2" fill="#dde2e8" stroke="none" stroke-width="1"/>
<rect x="624.0" y="173.0" width="5.1" height="14.0" rx="2" fill="#2f6db5" stroke="none" stroke-width="1"/>
<text x="691.0" y="184.0" font-size="11" fill="#1f2933" text-anchor="start" font-weight="normal">1,3</text>
<rect x="724.0" y="173.0" width="62.0" height="14.0" rx="2" fill="#dde2e8" stroke="none" stroke-width="1"/>
<rect x="724.0" y="173.0" width="13.8" height="14.0" rx="2" fill="#2f6db5" stroke="none" stroke-width="1"/>
<text x="791.0" y="184.0" font-size="11" fill="#1f2933" text-anchor="start" font-weight="normal">1,9</text>
<rect x="824.0" y="173.0" width="8.2" height="14.0" rx="2" fill="#52606d" stroke="none" stroke-width="1"/>
<text x="837.2" y="184.0" font-size="11" fill="#1f2933" text-anchor="start" font-weight="normal">5,0 s</text>
<rect x="944.0" y="173.0" width="2.0" height="14.0" rx="2" fill="#52606d" stroke="none" stroke-width="1"/>
<text x="949.3" y="184.0" font-size="11" fill="#1f2933" text-anchor="start" font-weight="normal">530</text>
<rect x="1064.0" y="173.0" width="62.0" height="14.0" rx="2" fill="#dde2e8" stroke="none" stroke-width="1"/>
<text x="1131.0" y="184.0" font-size="11" fill="#1f2933" text-anchor="start" font-weight="normal">0 %</text>
<rect x="20.0" y="204.0" width="1164.0" height="40.0" rx="3" fill="#f3f6fa" stroke="none" stroke-width="1"/>
<text x="24.0" y="224.0" font-size="12" fill="#1f2933" text-anchor="start" font-weight="600">best-quality</text>
<rect x="224.0" y="213.0" width="62.0" height="14.0" rx="2" fill="#dde2e8" stroke="none" stroke-width="1"/>
<rect x="224.0" y="213.0" width="49.1" height="14.0" rx="2" fill="#2f6db5" stroke="none" stroke-width="1"/>
<text x="291.0" y="224.0" font-size="11" fill="#1f2933" text-anchor="start" font-weight="normal">4,2</text>
<rect x="324.0" y="213.0" width="62.0" height="14.0" rx="2" fill="#dde2e8" stroke="none" stroke-width="1"/>
<rect x="324.0" y="213.0" width="43.9" height="14.0" rx="2" fill="#2f6db5" stroke="none" stroke-width="1"/>
<text x="391.0" y="224.0" font-size="11" fill="#1f2933" text-anchor="start" font-weight="normal">3,8</text>
<rect x="424.0" y="213.0" width="62.0" height="14.0" rx="2" fill="#dde2e8" stroke="none" stroke-width="1"/>
<rect x="424.0" y="213.0" width="10.4" height="14.0" rx="2" fill="#2f6db5" stroke="none" stroke-width="1"/>
<text x="491.0" y="224.0" font-size="11" fill="#1f2933" text-anchor="start" font-weight="normal">1,7</text>
<rect x="524.0" y="213.0" width="62.0" height="14.0" rx="2" fill="#dde2e8" stroke="none" stroke-width="1"/>
<rect x="524.0" y="213.0" width="26.7" height="14.0" rx="2" fill="#2f6db5" stroke="none" stroke-width="1"/>
<text x="591.0" y="224.0" font-size="11" fill="#1f2933" text-anchor="start" font-weight="normal">2,7</text>
<rect x="624.0" y="213.0" width="62.0" height="14.0" rx="2" fill="#dde2e8" stroke="none" stroke-width="1"/>
<rect x="624.0" y="213.0" width="13.8" height="14.0" rx="2" fill="#2f6db5" stroke="none" stroke-width="1"/>
<text x="691.0" y="224.0" font-size="11" fill="#1f2933" text-anchor="start" font-weight="normal">1,9</text>
<rect x="724.0" y="213.0" width="62.0" height="14.0" rx="2" fill="#dde2e8" stroke="none" stroke-width="1"/>
<rect x="724.0" y="213.0" width="14.6" height="14.0" rx="2" fill="#2f6db5" stroke="none" stroke-width="1"/>
<text x="791.0" y="224.0" font-size="11" fill="#1f2933" text-anchor="start" font-weight="normal">1,9</text>
<rect x="824.0" y="213.0" width="26.9" height="14.0" rx="2" fill="#52606d" stroke="none" stroke-width="1"/>
<text x="855.9" y="224.0" font-size="11" fill="#1f2933" text-anchor="start" font-weight="normal">16 s</text>
<rect x="944.0" y="213.0" width="36.0" height="14.0" rx="2" fill="#52606d" stroke="none" stroke-width="1"/>
<rect x="944.0" y="213.0" width="15.9" height="14.0" rx="2" fill="#9aa5b1" stroke="none" stroke-width="1"/>
<text x="985.0" y="224.0" font-size="11" fill="#1f2933" text-anchor="start" font-weight="normal">59.900</text>
<text x="944.0" y="240.0" font-size="9.5" fill="#52606d" text-anchor="start" font-weight="normal">davon Cache 26.600</text>
<rect x="1064.0" y="213.0" width="62.0" height="14.0" rx="2" fill="#dde2e8" stroke="none" stroke-width="1"/>
<text x="1131.0" y="224.0" font-size="11" fill="#1f2933" text-anchor="start" font-weight="normal">0 %</text>
<text x="24.0" y="264.0" font-size="12" fill="#1f2933" text-anchor="start" font-weight="600">best-quality-generated</text>
<rect x="224.0" y="253.0" width="62.0" height="14.0" rx="2" fill="#dde2e8" stroke="none" stroke-width="1"/>
<rect x="224.0" y="253.0" width="59.4" height="14.0" rx="2" fill="#2f6db5" stroke="none" stroke-width="1"/>
<text x="291.0" y="264.0" font-size="11" fill="#1f2933" text-anchor="start" font-weight="normal">4,8</text>
<rect x="324.0" y="253.0" width="62.0" height="14.0" rx="2" fill="#dde2e8" stroke="none" stroke-width="1"/>
<rect x="324.0" y="253.0" width="56.9" height="14.0" rx="2" fill="#2f6db5" stroke="none" stroke-width="1"/>
<text x="391.0" y="264.0" font-size="11" fill="#1f2933" text-anchor="start" font-weight="normal">4,7</text>
<rect x="424.0" y="253.0" width="62.0" height="14.0" rx="2" fill="#dde2e8" stroke="none" stroke-width="1"/>
<rect x="424.0" y="253.0" width="49.1" height="14.0" rx="2" fill="#2f6db5" stroke="none" stroke-width="1"/>
<text x="491.0" y="264.0" font-size="11" fill="#1f2933" text-anchor="start" font-weight="normal">4,2</text>
<rect x="524.0" y="253.0" width="62.0" height="14.0" rx="2" fill="#dde2e8" stroke="none" stroke-width="1"/>
<rect x="524.0" y="253.0" width="48.2" height="14.0" rx="2" fill="#2f6db5" stroke="none" stroke-width="1"/>
<text x="591.0" y="264.0" font-size="11" fill="#1f2933" text-anchor="start" font-weight="normal">4,1</text>
<rect x="624.0" y="253.0" width="62.0" height="14.0" rx="2" fill="#dde2e8" stroke="none" stroke-width="1"/>
<rect x="624.0" y="253.0" width="49.9" height="14.0" rx="2" fill="#2f6db5" stroke="none" stroke-width="1"/>
<text x="691.0" y="264.0" font-size="11" fill="#1f2933" text-anchor="start" font-weight="normal">4,2</text>
<rect x="724.0" y="253.0" width="62.0" height="14.0" rx="2" fill="#dde2e8" stroke="none" stroke-width="1"/>
<rect x="724.0" y="253.0" width="45.6" height="14.0" rx="2" fill="#2f6db5" stroke="none" stroke-width="1"/>
<text x="791.0" y="264.0" font-size="11" fill="#1f2933" text-anchor="start" font-weight="normal">3,9</text>
<rect x="824.0" y="253.0" width="49.7" height="14.0" rx="2" fill="#52606d" stroke="none" stroke-width="1"/>
<text x="878.7" y="264.0" font-size="11" fill="#1f2933" text-anchor="start" font-weight="normal">30 s</text>
<rect x="944.0" y="253.0" width="50.4" height="14.0" rx="2" fill="#52606d" stroke="none" stroke-width="1"/>
<rect x="944.0" y="253.0" width="8.3" height="14.0" rx="2" fill="#9aa5b1" stroke="none" stroke-width="1"/>
<text x="999.4" y="264.0" font-size="11" fill="#1f2933" text-anchor="start" font-weight="normal">84.000</text>
<text x="944.0" y="280.0" font-size="9.5" fill="#52606d" text-anchor="start" font-weight="normal">davon Cache 13.800</text>
<rect x="1064.0" y="253.0" width="62.0" height="14.0" rx="2" fill="#dde2e8" stroke="none" stroke-width="1"/>
<rect x="1064.0" y="253.0" width="38.3" height="14.0" rx="2" fill="#d9822b" stroke="none" stroke-width="1"/>
<text x="1131.0" y="264.0" font-size="11" fill="#1f2933" text-anchor="start" font-weight="normal">62 %</text>
<rect x="20.0" y="284.0" width="1164.0" height="40.0" rx="3" fill="#f3f6fa" stroke="none" stroke-width="1"/>
<text x="24.0" y="304.0" font-size="12" fill="#1f2933" text-anchor="start" font-weight="600">best-coverage-generated</text>
<rect x="224.0" y="293.0" width="62.0" height="14.0" rx="2" fill="#dde2e8" stroke="none" stroke-width="1"/>
<rect x="224.0" y="293.0" width="62.0" height="14.0" rx="2" fill="#2f6db5" stroke="none" stroke-width="1"/>
<text x="291.0" y="304.0" font-size="11" fill="#1f2933" text-anchor="start" font-weight="normal">5,0</text>
<rect x="324.0" y="293.0" width="62.0" height="14.0" rx="2" fill="#dde2e8" stroke="none" stroke-width="1"/>
<rect x="324.0" y="293.0" width="62.0" height="14.0" rx="2" fill="#2f6db5" stroke="none" stroke-width="1"/>
<text x="391.0" y="304.0" font-size="11" fill="#1f2933" text-anchor="start" font-weight="normal">5,0</text>
<rect x="424.0" y="293.0" width="62.0" height="14.0" rx="2" fill="#dde2e8" stroke="none" stroke-width="1"/>
<rect x="424.0" y="293.0" width="62.0" height="14.0" rx="2" fill="#2f6db5" stroke="none" stroke-width="1"/>
<text x="491.0" y="304.0" font-size="11" fill="#1f2933" text-anchor="start" font-weight="normal">5,0</text>
<rect x="524.0" y="293.0" width="62.0" height="14.0" rx="2" fill="#dde2e8" stroke="none" stroke-width="1"/>
<rect x="524.0" y="293.0" width="58.6" height="14.0" rx="2" fill="#2f6db5" stroke="none" stroke-width="1"/>
<text x="591.0" y="304.0" font-size="11" fill="#1f2933" text-anchor="start" font-weight="normal">4,8</text>
<rect x="624.0" y="293.0" width="62.0" height="14.0" rx="2" fill="#dde2e8" stroke="none" stroke-width="1"/>
<rect x="624.0" y="293.0" width="60.3" height="14.0" rx="2" fill="#2f6db5" stroke="none" stroke-width="1"/>
<text x="691.0" y="304.0" font-size="11" fill="#1f2933" text-anchor="start" font-weight="normal">4,9</text>
<rect x="724.0" y="293.0" width="62.0" height="14.0" rx="2" fill="#dde2e8" stroke="none" stroke-width="1"/>
<rect x="724.0" y="293.0" width="49.1" height="14.0" rx="2" fill="#2f6db5" stroke="none" stroke-width="1"/>
<text x="791.0" y="304.0" font-size="11" fill="#1f2933" text-anchor="start" font-weight="normal">4,2</text>
<rect x="824.0" y="293.0" width="62.0" height="14.0" rx="2" fill="#52606d" stroke="none" stroke-width="1"/>
<text x="891.0" y="304.0" font-size="11" fill="#1f2933" text-anchor="start" font-weight="normal">38 s</text>
<rect x="944.0" y="293.0" width="62.0" height="14.0" rx="2" fill="#52606d" stroke="none" stroke-width="1"/>
<rect x="944.0" y="293.0" width="36.2" height="14.0" rx="2" fill="#9aa5b1" stroke="none" stroke-width="1"/>
<text x="1011.0" y="304.0" font-size="11" fill="#1f2933" text-anchor="start" font-weight="normal">103.300</text>
<text x="944.0" y="320.0" font-size="9.5" fill="#52606d" text-anchor="start" font-weight="normal">davon Cache 60.200</text>
<rect x="1064.0" y="293.0" width="62.0" height="14.0" rx="2" fill="#dde2e8" stroke="none" stroke-width="1"/>
<rect x="1064.0" y="293.0" width="51.5" height="14.0" rx="2" fill="#d9822b" stroke="none" stroke-width="1"/>
<text x="1131.0" y="304.0" font-size="11" fill="#1f2933" text-anchor="start" font-weight="normal">83 %</text>
<text x="24.0" y="346.0" font-size="10.5" fill="#52606d" text-anchor="start" font-weight="normal">Passung: genau beim angefragten Thema, je Art drei Themen (einfach: Optik, Photosynthese, Französische Revolution;</text>
<text x="24.0" y="362.0" font-size="10.5" fill="#52606d" text-anchor="start" font-weight="normal">Sammelthema: Dichter aus dem Mittelalter, Komponisten der Klassik, Philosophen der Aufklärung; mit Aspekt: OER-Förderungen,</text>
<text x="24.0" y="378.0" font-size="10.5" fill="#52606d" text-anchor="start" font-weight="normal">Inklusion im Sportunterricht, KI im Unterricht). Nutzen, Vollständigkeit, Lesbarkeit: Mittel über alle neun Themen.</text>
<text x="24.0" y="394.0" font-size="10.5" fill="#52606d" text-anchor="start" font-weight="normal">Zeit, Tokens und Modellwissen: Median der neun Läufe auf dem Entwicklungsrechner, Teil 1 mit 30.000 Zielzeichen, gpt-6-luna</text>
<text x="24.0" y="410.0" font-size="10.5" fill="#52606d" text-anchor="start" font-weight="normal">(M52, 02.10.2026). Tokens aus dem Prompt-Cache zahlt der Anbieter günstiger. Teil 2 (Lehrpläne) kommt dazu: M45.</text></svg>
