<svg xmlns="http://www.w3.org/2000/svg" width="840" height="708" viewBox="0 0 840 708" font-family="Segoe UI, Helvetica Neue, Arial, sans-serif" role="img" aria-label="Ablauf von Teil 1 mit Schaltern, Standardwerten und Zeiten"><title>Ablauf von Teil 1 mit Schaltern, Standardwerten und Zeiten</title><rect width="840" height="708" fill="#ffffff"/>
<text x="24.0" y="30.0" font-size="17" fill="#1f2933" text-anchor="start" font-weight="600">Teil 1 · Weltwissen: vom Thema zum Kompendium</text>
<rect x="24.0" y="44.0" width="300.0" height="30.0" rx="6" fill="#f3f6fa" stroke="#dde2e8" stroke-width="1"/>
<text x="174.0" y="64.0" font-size="12" fill="#52606d" text-anchor="middle" font-weight="normal">Anfrage: topic oder collection_id</text>
<line x1="174.0" y1="74.0" x2="174.0" y2="86.0" stroke="#52606d" stroke-width="1.5"/>
<polygon points="169.0,85.0 179.0,85.0 174.0,92.0" fill="#52606d"/>
<rect x="24.0" y="92.0" width="300.0" height="70.0" rx="8" fill="#e8f0fa" stroke="#2f6db5" stroke-width="1.5"/>
<text x="40.0" y="120.0" font-size="14" fill="#1f2933" text-anchor="start" font-weight="600">1  Hauptartikel finden</text>
<text x="40.0" y="142.0" font-size="11.5" fill="#52606d" text-anchor="start" font-weight="normal">Thema bereinigen, im Archivindex auflösen</text>
<rect x="284.0" y="100.0" width="32.0" height="17.0" rx="8" fill="#d9822b" stroke="none" stroke-width="1"/>
<text x="300.0" y="112.5" font-size="10" fill="#ffffff" text-anchor="middle" font-weight="600">LLM</text>
<text x="344.0" y="112.0" font-size="12" fill="#1f2933" text-anchor="start" font-weight="normal">Schalter article_choice: rule-based oder llm</text>
<text x="344.0" y="132.0" font-size="12" fill="#1f2933" text-anchor="start" font-weight="normal">llm-free: rule-based; die übrigen Profile (Standard balanced): llm</text>
<text x="344.0" y="152.0" font-size="12" fill="#52606d" text-anchor="start" font-weight="normal">Zeit: rund 0,03 s; LLM nur bei unsicheren Themen, +1,0 bis 2,7 s</text>
<line x1="174.0" y1="162.0" x2="174.0" y2="182.0" stroke="#52606d" stroke-width="1.5"/>
<polygon points="169.0,181.0 179.0,181.0 174.0,188.0" fill="#52606d"/>
<rect x="24.0" y="188.0" width="300.0" height="70.0" rx="8" fill="#e8f0fa" stroke="#2f6db5" stroke-width="1.5"/>
<text x="40.0" y="216.0" font-size="14" fill="#1f2933" text-anchor="start" font-weight="600">2  Korpus bauen</text>
<text x="40.0" y="238.0" font-size="11.5" fill="#52606d" text-anchor="start" font-weight="normal">bis 12 Artikel, höchstens 400 Absätze</text>
<rect x="284.0" y="196.0" width="32.0" height="17.0" rx="8" fill="#d9822b" stroke="none" stroke-width="1"/>
<text x="300.0" y="208.5" font-size="10" fill="#ffffff" text-anchor="middle" font-weight="600">LLM</text>
<text x="344.0" y="208.0" font-size="12" fill="#1f2933" text-anchor="start" font-weight="normal">Einstellungen: max_articles (12), ZIM_PROFILE (standard)</text>
<text x="344.0" y="228.0" font-size="12" fill="#1f2933" text-anchor="start" font-weight="normal">Trefferprüfung durch das LLM, wenn article_choice=llm</text>
<text x="344.0" y="248.0" font-size="12" fill="#52606d" text-anchor="start" font-weight="normal">Zeit: 0,9 s auf dem Server; Trefferprüfung +1,5 bis 2,4 s (M27)</text>
<line x1="174.0" y1="258.0" x2="174.0" y2="278.0" stroke="#52606d" stroke-width="1.5"/>
<polygon points="169.0,277.0 179.0,277.0 174.0,284.0" fill="#52606d"/>
<rect x="24.0" y="284.0" width="300.0" height="70.0" rx="8" fill="#e8f0fa" stroke="#2f6db5" stroke-width="1.5"/>
<text x="40.0" y="312.0" font-size="14" fill="#1f2933" text-anchor="start" font-weight="600">3  Absätze zuordnen</text>
<text x="40.0" y="334.0" font-size="11.5" fill="#52606d" text-anchor="start" font-weight="normal">10 Inhaltsbausteine des Templates SC26</text>
<rect x="284.0" y="292.0" width="32.0" height="17.0" rx="8" fill="#d9822b" stroke="none" stroke-width="1"/>
<text x="300.0" y="304.5" font-size="10" fill="#ffffff" text-anchor="middle" font-weight="600">LLM</text>
<text x="344.0" y="304.0" font-size="12" fill="#1f2933" text-anchor="start" font-weight="normal">Schalter matcher: hybrid_light, bm25, char_tfidf, lexicon_only, llm</text>
<text x="344.0" y="324.0" font-size="12" fill="#1f2933" text-anchor="start" font-weight="normal">llm-free, balanced: hybrid_light; best-quality und -generated: llm</text>
<text x="344.0" y="344.0" font-size="12" fill="#52606d" text-anchor="start" font-weight="normal">Zeit: 0,3 s; llm rund 11 s, rund 170 Tokens je Absatz (M27)</text>
<line x1="174.0" y1="354.0" x2="174.0" y2="374.0" stroke="#52606d" stroke-width="1.5"/>
<polygon points="169.0,373.0 179.0,373.0 174.0,380.0" fill="#52606d"/>
<rect x="24.0" y="380.0" width="300.0" height="70.0" rx="8" fill="#e8f0fa" stroke="#2f6db5" stroke-width="1.5"/>
<text x="40.0" y="408.0" font-size="14" fill="#1f2933" text-anchor="start" font-weight="600">4  Text bauen</text>
<text x="40.0" y="430.0" font-size="11.5" fill="#52606d" text-anchor="start" font-weight="normal">Absätze wörtlich, mit Belegnummer</text>
<rect x="284.0" y="388.0" width="32.0" height="17.0" rx="8" fill="#d9822b" stroke="none" stroke-width="1"/>
<text x="300.0" y="400.5" font-size="10" fill="#ffffff" text-anchor="middle" font-weight="600">LLM</text>
<text x="344.0" y="400.0" font-size="12" fill="#1f2933" text-anchor="start" font-weight="normal">Schalter extraction: rule-based oder llm; Länge: target_length</text>
<text x="344.0" y="420.0" font-size="12" fill="#1f2933" text-anchor="start" font-weight="normal">alle Profile: rule-based, 12.000 Zeichen</text>
<text x="344.0" y="440.0" font-size="12" fill="#52606d" text-anchor="start" font-weight="normal">Zeit: 1,1 s auf dem Server; llm rund 11 s</text>
<line x1="174.0" y1="450.0" x2="174.0" y2="470.0" stroke="#52606d" stroke-width="1.5"/>
<polygon points="169.0,469.0 179.0,469.0 174.0,476.0" fill="#52606d"/>
<rect x="24.0" y="476.0" width="300.0" height="70.0" rx="8" fill="#ffffff" stroke="#d9822b" stroke-width="1.5" stroke-dasharray="6 4"/>
<text x="40.0" y="504.0" font-size="14" fill="#1f2933" text-anchor="start" font-weight="600">5  Umformulieren (optional)</text>
<text x="40.0" y="526.0" font-size="11.5" fill="#52606d" text-anchor="start" font-weight="normal">LLM schreibt Bausteine neu, Belegprüfung</text>
<rect x="284.0" y="484.0" width="32.0" height="17.0" rx="8" fill="#d9822b" stroke="none" stroke-width="1"/>
<text x="300.0" y="496.5" font-size="10" fill="#ffffff" text-anchor="middle" font-weight="600">LLM</text>
<text x="344.0" y="496.0" font-size="12" fill="#1f2933" text-anchor="start" font-weight="normal">Schalter generation: rule-based, llm-fast, llm; dazu enrichment</text>
<text x="344.0" y="516.0" font-size="12" fill="#1f2933" text-anchor="start" font-weight="normal">best-quality-generated: llm und model-knowledge; sonst rule-based</text>
<text x="344.0" y="536.0" font-size="12" fill="#52606d" text-anchor="start" font-weight="normal">Zeit: llm rund 8,8 s, 4.300 bis 11.600 Tokens mehr (M27)</text>
<line x1="174.0" y1="546.0" x2="174.0" y2="566.0" stroke="#52606d" stroke-width="1.5"/>
<polygon points="169.0,565.0 179.0,565.0 174.0,572.0" fill="#52606d"/>
<rect x="24.0" y="572.0" width="300.0" height="70.0" rx="8" fill="#e8f0fa" stroke="#2f6db5" stroke-width="1.5"/>
<text x="40.0" y="600.0" font-size="14" fill="#1f2933" text-anchor="start" font-weight="600">6  Zusammensetzen</text>
<text x="40.0" y="622.0" font-size="11.5" fill="#52606d" text-anchor="start" font-weight="normal">mit Teil 2 Lehrpläne und Teil 3 Sammlung</text>
<text x="344.0" y="592.0" font-size="12" fill="#1f2933" text-anchor="start" font-weight="normal">Teil 2: 0,24 s; Teil 3: 0,16 s aus dem Zwischenspeicher</text>
<text x="344.0" y="612.0" font-size="12" fill="#1f2933" text-anchor="start" font-weight="normal">Ergebnis: Markdown und JSON, mit Vorspann und Audit</text>
<text x="344.0" y="632.0" font-size="12" fill="#52606d" text-anchor="start" font-weight="normal">Teil 1 ohne LLM: 1,2 bis 2,0 s</text>
<rect x="24.0" y="680.0" width="12.0" height="12.0" rx="2" fill="#2f6db5" stroke="none" stroke-width="1"/>
<text x="42.0" y="690.0" font-size="12" fill="#52606d" text-anchor="start" font-weight="normal">läuft lokal, ohne Tokens</text>
<rect x="225.3" y="680.0" width="12.0" height="12.0" rx="2" fill="#d9822b" stroke="none" stroke-width="1"/>
<text x="243.3" y="690.0" font-size="12" fill="#52606d" text-anchor="start" font-weight="normal">LLM-Option über die b-api (gpt-6-luna)</text></svg>
