<svg xmlns="http://www.w3.org/2000/svg" width="996" height="520" viewBox="0 0 996 520" font-family="Segoe UI, Helvetica Neue, Arial, sans-serif" role="img" aria-label="Güte, Zeit und Kosten: alter Dienst und Profile"><title>Güte, Zeit und Kosten: alter Dienst und Profile</title><rect width="996" height="520" fill="#ffffff"/>
<text x="24.0" y="30.0" font-size="17" fill="#1f2933" text-anchor="start" font-weight="600">Güte, Zeit und Kosten: alter Dienst und die vier Profile</text>
<text x="24.0" y="50.0" font-size="12" fill="#52606d" text-anchor="start" font-weight="normal">je Kompendium; ein längerer Balken ist bei Zeit und Tokens teurer, bei der Güte besser</text>
<rect x="206.0" y="66.0" width="250.0" height="154.0" rx="4" fill="#f3f6fa" stroke="none" stroke-width="1"/>
<text x="214.0" y="84.0" font-size="12" fill="#1f2933" text-anchor="start" font-weight="600">Zeit je Kompendium, Teil 1 und 2</text>
<text x="200.0" y="110.0" font-size="12" fill="#1f2933" text-anchor="end" font-weight="600">alter Dienst, bester Fall</text>
<rect x="214.0" y="98.0" width="147.0" height="15.0" rx="2" fill="#9aa5b1" stroke="none" stroke-width="1"/>
<text x="367.0" y="110.0" font-size="11" fill="#52606d" text-anchor="start" font-weight="normal">35 s</text>
<text x="200.0" y="134.0" font-size="12" fill="#1f2933" text-anchor="end" font-weight="600">llm-free</text>
<rect x="214.0" y="122.0" width="9.5" height="15.0" rx="2" fill="#2f6db5" stroke="none" stroke-width="1"/>
<text x="229.5" y="134.0" font-size="11" fill="#52606d" text-anchor="start" font-weight="normal">2,3 s</text>
<text x="200.0" y="158.0" font-size="12" fill="#1f2933" text-anchor="end" font-weight="600">balanced (Standard)</text>
<rect x="214.0" y="146.0" width="29.1" height="15.0" rx="2" fill="#7a5aa6" stroke="none" stroke-width="1"/>
<text x="249.1" y="158.0" font-size="11" fill="#52606d" text-anchor="start" font-weight="normal">7 s</text>
<text x="200.0" y="182.0" font-size="12" fill="#1f2933" text-anchor="end" font-weight="600">best-quality</text>
<rect x="214.0" y="170.0" width="109.2" height="15.0" rx="2" fill="#d9822b" stroke="none" stroke-width="1"/>
<text x="329.2" y="182.0" font-size="11" fill="#52606d" text-anchor="start" font-weight="normal">26 s</text>
<text x="200.0" y="206.0" font-size="12" fill="#1f2933" text-anchor="end" font-weight="600">best-quality-generated</text>
<rect x="214.0" y="194.0" width="150.1" height="15.0" rx="2" fill="#b24c63" stroke="none" stroke-width="1"/>
<text x="370.1" y="206.0" font-size="11" fill="#52606d" text-anchor="start" font-weight="normal">36 s</text>
<rect x="466.0" y="66.0" width="250.0" height="154.0" rx="4" fill="#f3f6fa" stroke="none" stroke-width="1"/>
<text x="474.0" y="84.0" font-size="12" fill="#1f2933" text-anchor="start" font-weight="600">Tokens je Kompendium, Median</text>
<rect x="474.0" y="98.0" width="29.5" height="15.0" rx="2" fill="#9aa5b1" stroke="none" stroke-width="1"/>
<text x="509.5" y="110.0" font-size="11" fill="#52606d" text-anchor="start" font-weight="normal">7.900</text>
<text x="474.0" y="134.0" font-size="11" fill="#1f2933" text-anchor="start" font-weight="normal">0</text>
<rect x="474.0" y="146.0" width="2.1" height="15.0" rx="2" fill="#7a5aa6" stroke="none" stroke-width="1"/>
<text x="482.1" y="158.0" font-size="11" fill="#52606d" text-anchor="start" font-weight="normal">580</text>
<rect x="474.0" y="170.0" width="168.0" height="15.0" rx="2" fill="#d9822b" stroke="none" stroke-width="1"/>
<text x="648.0" y="182.0" font-size="11" fill="#52606d" text-anchor="start" font-weight="normal">49.000</text>
<rect x="474.0" y="194.0" width="168.0" height="15.0" rx="2" fill="#b24c63" stroke="none" stroke-width="1"/>
<text x="648.0" y="206.0" font-size="11" fill="#52606d" text-anchor="start" font-weight="normal">60.400</text>
<rect x="726.0" y="66.0" width="250.0" height="154.0" rx="4" fill="#f3f6fa" stroke="none" stroke-width="1"/>
<text x="734.0" y="84.0" font-size="12" fill="#1f2933" text-anchor="start" font-weight="600">Hauptartikel richtig, 94 Anfragen</text>
<rect x="734.0" y="98.0" width="98.3" height="15.0" rx="2" fill="#9aa5b1" stroke="none" stroke-width="1"/>
<text x="838.3" y="110.0" font-size="11" fill="#52606d" text-anchor="start" font-weight="normal">55 von 94</text>
<rect x="734.0" y="122.0" width="155.5" height="15.0" rx="2" fill="#2f6db5" stroke="none" stroke-width="1"/>
<text x="895.5" y="134.0" font-size="11" fill="#52606d" text-anchor="start" font-weight="normal">87 von 94</text>
<rect x="734.0" y="146.0" width="162.6" height="15.0" rx="2" fill="#7a5aa6" stroke="none" stroke-width="1"/>
<text x="902.6" y="158.0" font-size="11" fill="#52606d" text-anchor="start" font-weight="normal">91 von 94</text>
<rect x="734.0" y="170.0" width="166.2" height="15.0" rx="2" fill="#d9822b" stroke="none" stroke-width="1"/>
<text x="906.2" y="182.0" font-size="11" fill="#52606d" text-anchor="start" font-weight="normal">93 von 94</text>
<rect x="734.0" y="194.0" width="166.2" height="15.0" rx="2" fill="#b24c63" stroke="none" stroke-width="1"/>
<text x="906.2" y="206.0" font-size="11" fill="#52606d" text-anchor="start" font-weight="normal">93 von 94</text>
<rect x="206.0" y="234.0" width="250.0" height="154.0" rx="4" fill="#f3f6fa" stroke="none" stroke-width="1"/>
<text x="214.0" y="252.0" font-size="12" fill="#1f2933" text-anchor="start" font-weight="600">Zuordnung, macro-F1</text>
<text x="200.0" y="278.0" font-size="12" fill="#1f2933" text-anchor="end" font-weight="600">alter Dienst, bester Fall</text>
<text x="214.0" y="278.0" font-size="11" fill="#1f2933" text-anchor="start" font-weight="normal">keine Bausteine</text>
<text x="200.0" y="302.0" font-size="12" fill="#1f2933" text-anchor="end" font-weight="600">llm-free</text>
<rect x="214.0" y="290.0" width="75.6" height="15.0" rx="2" fill="#2f6db5" stroke="none" stroke-width="1"/>
<text x="295.6" y="302.0" font-size="11" fill="#52606d" text-anchor="start" font-weight="normal">0,45</text>
<text x="200.0" y="326.0" font-size="12" fill="#1f2933" text-anchor="end" font-weight="600">balanced (Standard)</text>
<rect x="214.0" y="314.0" width="84.0" height="15.0" rx="2" fill="#7a5aa6" stroke="none" stroke-width="1"/>
<text x="304.0" y="326.0" font-size="11" fill="#52606d" text-anchor="start" font-weight="normal">0,50²</text>
<text x="200.0" y="350.0" font-size="12" fill="#1f2933" text-anchor="end" font-weight="600">best-quality</text>
<rect x="214.0" y="338.0" width="117.6" height="15.0" rx="2" fill="#d9822b" stroke="none" stroke-width="1"/>
<text x="337.6" y="350.0" font-size="11" fill="#52606d" text-anchor="start" font-weight="normal">0,70</text>
<text x="200.0" y="374.0" font-size="12" fill="#1f2933" text-anchor="end" font-weight="600">best-quality-generated</text>
<rect x="214.0" y="362.0" width="117.6" height="15.0" rx="2" fill="#b24c63" stroke="none" stroke-width="1"/>
<text x="337.6" y="374.0" font-size="11" fill="#52606d" text-anchor="start" font-weight="normal">0,70</text>
<rect x="466.0" y="234.0" width="250.0" height="154.0" rx="4" fill="#f3f6fa" stroke="none" stroke-width="1"/>
<text x="474.0" y="252.0" font-size="12" fill="#1f2933" text-anchor="start" font-weight="600">Sätze von ihrer Quelle gestützt</text>
<rect x="474.0" y="266.0" width="35.3" height="15.0" rx="2" fill="#9aa5b1" stroke="none" stroke-width="1"/>
<text x="515.3" y="278.0" font-size="11" fill="#52606d" text-anchor="start" font-weight="normal">21 %</text>
<rect x="474.0" y="290.0" width="168.0" height="15.0" rx="2" fill="#2f6db5" stroke="none" stroke-width="1"/>
<text x="648.0" y="302.0" font-size="11" fill="#52606d" text-anchor="start" font-weight="normal">100 %</text>
<rect x="474.0" y="314.0" width="168.0" height="15.0" rx="2" fill="#7a5aa6" stroke="none" stroke-width="1"/>
<text x="648.0" y="326.0" font-size="11" fill="#52606d" text-anchor="start" font-weight="normal">100 %</text>
<rect x="474.0" y="338.0" width="168.0" height="15.0" rx="2" fill="#d9822b" stroke="none" stroke-width="1"/>
<text x="648.0" y="350.0" font-size="11" fill="#52606d" text-anchor="start" font-weight="normal">100 %</text>
<text x="474.0" y="374.0" font-size="11" fill="#1f2933" text-anchor="start" font-weight="normal">geprüft, Modellwissen markiert</text>
<rect x="726.0" y="234.0" width="250.0" height="154.0" rx="4" fill="#f3f6fa" stroke="none" stroke-width="1"/>
<text x="734.0" y="252.0" font-size="12" fill="#1f2933" text-anchor="start" font-weight="600">Lesbarkeit für Lehrkräfte, 1 bis 5</text>
<text x="734.0" y="278.0" font-size="11" fill="#1f2933" text-anchor="start" font-weight="normal">nicht benotet</text>
<rect x="734.0" y="290.0" width="84.0" height="15.0" rx="2" fill="#2f6db5" stroke="none" stroke-width="1"/>
<text x="824.0" y="302.0" font-size="11" fill="#52606d" text-anchor="start" font-weight="normal">2,5¹</text>
<rect x="734.0" y="314.0" width="84.0" height="15.0" rx="2" fill="#7a5aa6" stroke="none" stroke-width="1"/>
<text x="824.0" y="326.0" font-size="11" fill="#52606d" text-anchor="start" font-weight="normal">2,5¹</text>
<rect x="734.0" y="338.0" width="84.0" height="15.0" rx="2" fill="#d9822b" stroke="none" stroke-width="1"/>
<text x="824.0" y="350.0" font-size="11" fill="#52606d" text-anchor="start" font-weight="normal">2,5</text>
<rect x="734.0" y="362.0" width="134.4" height="15.0" rx="2" fill="#b24c63" stroke="none" stroke-width="1"/>
<text x="874.4" y="374.0" font-size="11" fill="#52606d" text-anchor="start" font-weight="normal">4,0</text>
<text x="24.0" y="418.0" font-size="10.5" fill="#52606d" text-anchor="start" font-weight="normal">Zeit: Server, Median (M45: ohne LLM gemessen, dazu die LLM-Schritte, gpt-6-luna). Tokens: Median, je LLM-Profil sechs eigene Themen (M45).</text>
<text x="24.0" y="434.0" font-size="10.5" fill="#52606d" text-anchor="start" font-weight="normal">Alter Dienst: M2 (Wikipedia antwortet; wie ausgeliefert wies Wikipedia ihn ab: 374 s, ein Text ohne Quelle).</text>
<text x="24.0" y="450.0" font-size="10.5" fill="#52606d" text-anchor="start" font-weight="normal">Hauptartikel: M17 (alter Weg: der Artikel des ersten Begriffs) und M35. Zuordnung am Goldpool: M27, M19;</text>
<text x="24.0" y="466.0" font-size="10.5" fill="#52606d" text-anchor="start" font-weight="normal">² nur auf den Absätzen mit Label, das Gold deckt den Korpus mit N zu zwei Dritteln (M39).</text>
<text x="24.0" y="482.0" font-size="10.5" fill="#52606d" text-anchor="start" font-weight="normal">Gestützt: M2 und M3; im wörtlichen Text steht jeder Satz im zitierten Absatz. Lesbarkeit: M28, zwei Claude-Gutachter;</text>
<text x="24.0" y="498.0" font-size="10.5" fill="#52606d" text-anchor="start" font-weight="normal">¹ der wörtliche Text wie bei best-quality, nicht eigens benotet.</text></svg>
